<?xml version="1.0" encoding="UTF-8"?>
<svg id="Calque_1" xmlns="http://www.w3.org/2000/svg" version="1.1" viewBox="0 0 384 384">
  <!-- Generator: Adobe Illustrator 29.5.1, SVG Export Plug-In . SVG Version: 2.1.0 Build 141)  -->
  <defs>
    <style>
      .st0 {
        fill: #fff;
      }
    </style>
  </defs>
  <path class="st0" d="M15.26,99.49c-12.84-15.07-4.78-38.49,13.81-43.8,106.27-2.18,212.9-.34,319.3-.93,32.12,2.68,35.9,44.91,5.66,53.64-107.75,1.83-216.3,1.83-324.05,0-5.06-1.22-11.36-4.96-14.72-8.91Z"/>
  <path class="st0" d="M15.26,284.51c3.36-3.94,9.66-7.68,14.72-8.91,107.75-1.83,216.3-1.83,324.05,0,30.24,8.73,26.46,50.96-5.66,53.64l-312.02.04c-22.56-.1-36.05-27.21-21.09-44.77Z"/>
  <path class="st0" d="M32.07,165.19l317.79-.18c33.04,3.81,33.05,50.17,0,53.98H33.38c-31.48-4.37-32.51-47.94-1.31-53.79Z"/>
</svg>